<?xml version="1.0" encoding="UTF-8"?>
<svg xmlns="http://www.w3.org/2000/svg" xmlns:xlink="http://www.w3.org/1999/xlink" viewBox="0 0 60 60" width="20%">
<g id="surface175969479">
<path style=" stroke:none;fill-rule:nonzero;fill:rgb(230, 230, 230);fill-opacity:1;" d="M 30 8 C 21.628906 8 10.761719 10.097656 10.761719 10.097656 L 10.734375 10.128906 C 6.921875 10.738281 4 14.015625 4 18 L 4 42.003906 C 4.007812 45.933594 6.871094 49.277344 10.753906 49.890625 L 10.761719 49.902344 C 10.761719 49.902344 21.628906 52.003906 30 52.003906 C 38.371094 52.003906 49.238281 49.902344 49.238281 49.902344 L 49.242188 49.898438 C 53.128906 49.289062 55.996094 45.9375 56 42.003906 L 56 18 C 55.996094 14.066406 53.132812 10.722656 49.246094 10.109375 L 49.238281 10.097656 C 49.238281 10.097656 38.371094 8 30 8 Z M 24 20.796875 L 40 30 L 24 39.203125 Z M 24 20.796875 "/>
</g>
</svg>
