
<svg id="Layer_1" data-name="Layer 1" xmlns="http://www.w3.org/2000/svg" viewBox="0 0 283.46 283.46"><defs><style>.cls-1{fill:#37bfc2;}</style></defs><title>zavie logo</title><path class="cls-1" d="M88.25,244.13v7.46H44.16l31.47-58h-27v-7.46H88.25l-31.48,58Zm73.68-12,18.45-46h8.49L161.93,251.6l-27-65.43h8.48Zm-39.42-26.53-18.45,46H95.57l26.94-65.43,27,65.43h-8.48Zm82.13,46.07H196.9V186.26h7.75Zm11.62-65.43h33.37v7.46H224v21.93H246.2v7.46H224v21.11h25.63v7.46H216.26ZM201.77,49,170.42,67.09,149,54.76V21.28l-4.52-2.61h0L34.88,82V120.8l57.14,33,54.88-31.68,54.88,31.68,57.14-33V82Zm52.62,66.59L204,86.51v-31l50.35,29.07Zm-103-32.29,48.09-27.76v31L178.26,98.78Zm-9.05,0L115.54,98.78,94.28,86.51v-31ZM92,90.43l19,11L89.75,113.66v33.6L41.66,119.5Zm2.26,25.85,50.35-29.07v31L94.28,147.26Zm52.62,3.22h0Zm0-38.82-19-11,19-11,19,11Zm-2.26-56.84v31L123.38,67.09,96.54,51.6l48-27.7ZM89.75,55.52v31L39.4,115.58v-31Zm59.41,62.67v-31l50.35,29.07v31ZM204,147.26v-33.6l-21.26-12.27,19-11,50.35,29.07Z"/></svg>